<?xml version="1.0" encoding="UTF-8" standalone="no" ?>
<!DOCTYPE svg PUBLIC "-//W3C//DTD SVG 1.1//EN" "http://www.w3.org/Graphics/SVG/1.1/DTD/svg11.dtd">
<svg xmlns="http://www.w3.org/2000/svg" xmlns:xlink="http://www.w3.org/1999/xlink" version="1.1" width="1280" height="1024" viewBox="0 0 1280 1024" xml:space="preserve">
<desc>Created with Fabric.js 5.3.0</desc>
<defs>
</defs>
<g transform="matrix(1 0 0 1 640 512)" id="background-logo"  >
<rect style="stroke: none; stroke-width: 0; stroke-dasharray: none; stroke-linecap: butt; stroke-dashoffset: 0; stroke-linejoin: miter; stroke-miterlimit: 4; fill: rgb(18,25,27); fill-rule: nonzero; opacity: 1;"  paint-order="stroke"  x="-640" y="-512" rx="0" ry="0" width="1280" height="1024" />
</g>
<g transform="matrix(1.9211538461538462 0 0 1.9211538461538462 645.5597374795412 625.0561815211452)" id="text-logo"  >
<g style=""  paint-order="stroke"   >
		<g transform="matrix(1 0 0 1 5.684342e-14 0)" id="text-logo-path-0"  >
<path style="stroke: none; stroke-width: 0.4680851063829785; stroke-dasharray: none; stroke-linecap: butt; stroke-dashoffset: 0; stroke-linejoin: miter; stroke-miterlimit: 4; fill: rgb(62,201,168); fill-rule: nonzero; opacity: 1;"  paint-order="stroke"  transform=" translate(-149.975, 15.399999999999999)" d="M 18.08 0.44 C 27.9 0.44 32.91 -3.04 33.13 -10.08 L 33.13 -16.24 L 19.01 -16.24 L 19.01 -10.08 L 25.61 -10.08 C 25.3 -7.17 21.96 -5.72 18.08 -5.72 C 12.41 -5.72 9.68 -8.62 9.68 -15.44 C 9.68 -22 12.23 -25.08 18.08 -25.08 C 22.35 -25.08 25.7 -23.76 25.7 -20.24 L 33.18 -20.24 C 32.65 -27.59 26.88 -31.24 18.08 -31.24 C 7.35 -31.24 2.2 -26.4 2.2 -15.44 C 2.2 -4.71 7.04 0.44 18.08 0.44 Z M 46.68 0 L 54.16 0 L 54.16 -10.12 L 59.75 -10.12 L 65.6 0 L 73.52 0 L 67.28 -10.82 C 71.06 -12.14 72.95 -15.4 72.95 -20.55 C 72.95 -27.37 69.52 -30.8 62.66 -30.8 L 46.68 -30.8 L 46.68 0 Z M 54.16 -16.28 L 54.16 -24.64 L 62.61 -24.64 C 64.42 -24.64 65.47 -23.28 65.47 -20.5 C 65.47 -17.69 64.5 -16.28 62.61 -16.28 L 54.16 -16.28 Z M 102.92 0.44 C 113.43 0.44 118.71 -4.66 118.71 -15.44 C 118.71 -26 113.78 -31.24 102.92 -31.24 C 92.31 -31.24 87.03 -26.31 87.03 -15.44 C 87.03 -4.84 92 0.44 102.92 0.44 Z M 94.51 -15.44 C 94.51 -21.91 97.15 -25.08 102.92 -25.08 C 108.42 -25.08 111.23 -22 111.23 -15.44 C 111.23 -8.93 108.68 -5.72 102.92 -5.72 C 97.28 -5.72 94.51 -8.76 94.51 -15.44 Z M 158.4 0 L 166.32 0 L 174.9 -30.8 L 167.42 -30.8 L 162.01 -11.35 L 156.86 -30.8 L 149.38 -30.8 L 144.23 -11.35 L 138.82 -30.8 L 131.34 -30.8 L 139.92 0 L 147.84 0 L 153.12 -18.04 L 158.4 0 Z M 198.75 0.44 C 206.1 0.44 209.97 -1.14 211.51 -4 C 212.26 -5.41 212.65 -7.3 212.65 -9.59 C 212.65 -15.58 209.88 -18.48 202.09 -18.48 L 198.75 -18.48 C 195.67 -18.48 193.91 -18.48 193.03 -19.36 C 192.63 -19.76 192.41 -20.46 192.41 -21.43 C 192.41 -23.41 192.94 -24.33 194.74 -24.77 C 195.67 -24.99 196.99 -25.08 198.79 -25.08 C 201.39 -25.08 202.71 -24.86 203.59 -23.5 C 204.03 -22.84 204.25 -21.78 204.25 -20.42 L 211.77 -20.42 C 211.77 -28.51 207.37 -31.24 198.79 -31.24 C 191.44 -31.24 187.62 -29.66 186.08 -26.8 C 185.28 -25.39 184.89 -23.5 184.89 -21.21 C 184.89 -15.22 187.66 -12.32 195.45 -12.32 L 198.75 -12.32 C 201.7 -12.32 203.59 -12.14 204.51 -11.26 C 204.91 -10.82 205.13 -10.21 205.13 -9.37 C 205.13 -7.39 204.64 -6.51 202.84 -6.07 C 201.87 -5.81 200.55 -5.72 198.75 -5.72 C 195.58 -5.72 194.04 -5.94 193.12 -7.3 C 192.63 -7.96 192.41 -8.98 192.41 -10.38 L 184.89 -10.38 C 184.89 -4.8 187 -1.85 191.09 -0.53 C 193.12 0.13 195.62 0.44 198.75 0.44 Z M 226.16 0 L 233.64 0 L 233.64 -10.12 L 239.23 -10.12 L 245.08 0 L 253 0 L 246.75 -10.82 C 250.54 -12.14 252.43 -15.4 252.43 -20.55 C 252.43 -27.37 249 -30.8 242.13 -30.8 L 226.16 -30.8 L 226.16 0 Z M 233.64 -16.28 L 233.64 -24.64 L 242.09 -24.64 C 243.89 -24.64 244.95 -23.28 244.95 -20.5 C 244.95 -17.69 243.98 -16.28 242.09 -16.28 L 233.64 -16.28 Z M 278.39 -11.88 L 278.39 0 L 285.87 0 L 285.87 -11.88 L 297.75 -30.8 L 289.83 -30.8 L 282.13 -18.52 L 274.43 -30.8 L 266.51 -30.8 L 278.39 -11.88 Z" stroke-linecap="round" />
</g>
</g>
</g>
<g transform="matrix(1.9211538461538462 0 0 1.9211538461538462 643.3812213087774 690.2266576525568)" id="tagline-c349782e-9ba2-4d7a-a88f-99e086d1d059-logo"  >
<g style=""  paint-order="stroke"   >
		<g transform="matrix(1 0 0 1 0 0)" id="tagline-c349782e-9ba2-4d7a-a88f-99e086d1d059-logo-path-0"  >
<path style="stroke: none; stroke-width: 0.31182025825117504; stroke-dasharray: none; stroke-linecap: butt; stroke-dashoffset: 0; stroke-linejoin: miter; stroke-miterlimit: 4; fill: rgb(62,201,168); fill-rule: nonzero; opacity: 1;"  paint-order="stroke"  transform=" translate(-97.795, 6.65)" d="M 6.93 0.19 C 10.11 0.19 11.78 -0.49 12.45 -1.73 C 12.77 -2.34 12.94 -3.15 12.94 -4.14 C 12.94 -6.73 11.74 -7.98 8.38 -7.98 L 6.93 -7.98 C 5.6 -7.98 4.84 -7.98 4.46 -8.36 C 4.29 -8.53 4.2 -8.83 4.2 -9.25 C 4.2 -10.11 4.43 -10.51 5.21 -10.7 C 5.6 -10.79 6.17 -10.83 6.95 -10.83 C 8.07 -10.83 8.64 -10.73 9.03 -10.15 C 9.21 -9.86 9.31 -9.4 9.31 -8.82 L 12.56 -8.82 C 12.56 -12.31 10.66 -13.49 6.95 -13.49 C 3.78 -13.49 2.13 -12.81 1.46 -11.57 C 1.12 -10.96 0.95 -10.15 0.95 -9.16 C 0.95 -6.57 2.15 -5.32 5.51 -5.32 L 6.93 -5.32 C 8.21 -5.32 9.03 -5.24 9.42 -4.86 C 9.6 -4.67 9.69 -4.41 9.69 -4.05 C 9.69 -3.19 9.48 -2.81 8.7 -2.62 C 8.28 -2.51 7.71 -2.47 6.93 -2.47 C 5.57 -2.47 4.9 -2.56 4.5 -3.15 C 4.29 -3.44 4.2 -3.88 4.2 -4.48 L 0.95 -4.48 C 0.95 -2.07 1.86 -0.8 3.63 -0.23 C 4.5 0.06 5.59 0.19 6.93 0.19 Z M 26.24 0 L 37.07 0 L 37.07 -2.66 L 29.47 -2.66 L 29.47 -5.32 L 35.17 -5.32 L 35.17 -7.98 L 29.47 -7.98 L 29.47 -10.64 L 37.07 -10.64 L 37.07 -13.3 L 26.24 -13.3 L 26.24 0 Z M 50.37 0 L 53.6 0 L 53.6 -13.3 L 50.37 -13.3 L 50.37 0 Z M 71.08 0 L 74.31 0 L 74.31 -10.64 L 78.49 -10.64 L 78.49 -13.3 L 66.9 -13.3 L 66.9 -10.64 L 71.08 -10.64 L 71.08 0 Z M 107.01 -2.66 L 106.99 0 L 118.6 0 L 118.6 -2.66 L 110.26 -2.66 C 110.33 -4.16 110.92 -4.75 112.61 -4.75 L 114.04 -4.75 C 117.4 -4.75 118.6 -6 118.6 -8.59 L 118.6 -9.16 C 118.6 -11.13 118.05 -12.33 116.28 -13 C 115.43 -13.32 114.17 -13.49 112.59 -13.49 C 108.89 -13.49 106.99 -12.31 106.99 -8.82 L 110.24 -8.82 C 110.24 -10.01 110.64 -10.54 111.28 -10.72 C 111.61 -10.79 112.04 -10.83 112.59 -10.83 C 113.98 -10.83 114.84 -10.7 115.14 -10.22 C 115.27 -10.01 115.35 -9.69 115.35 -9.25 L 115.35 -8.68 C 115.35 -7.85 114.99 -7.54 114.3 -7.47 C 113.96 -7.43 113.39 -7.41 112.61 -7.41 L 111.55 -7.41 C 108.6 -7.41 107.14 -5.97 107.01 -2.66 Z M 138.38 0.19 C 142.73 0.19 144.82 -1.9 144.82 -6.67 C 144.82 -11.3 142.86 -13.49 138.38 -13.49 C 133.99 -13.49 131.9 -11.4 131.9 -6.67 C 131.9 -2.03 133.87 0.19 138.38 0.19 Z M 135.13 -6.67 C 135.13 -9.5 136.1 -10.83 138.38 -10.83 C 140.56 -10.83 141.59 -9.56 141.59 -6.67 C 141.59 -3.84 140.6 -2.47 138.38 -2.47 C 136.17 -2.47 135.13 -3.76 135.13 -6.67 Z M 158.14 -2.66 L 158.12 0 L 169.73 0 L 169.73 -2.66 L 161.39 -2.66 C 161.46 -4.16 162.05 -4.75 163.74 -4.75 L 165.17 -4.75 C 168.53 -4.75 169.73 -6 169.73 -8.59 L 169.73 -9.16 C 169.73 -11.13 169.18 -12.33 167.41 -13 C 166.55 -13.32 165.3 -13.49 163.72 -13.49 C 160.02 -13.49 158.12 -12.31 158.12 -8.82 L 161.37 -8.82 C 161.37 -10.01 161.77 -10.54 162.41 -10.72 C 162.74 -10.79 163.17 -10.83 163.72 -10.83 C 165.11 -10.83 165.97 -10.7 166.27 -10.22 C 166.4 -10.01 166.48 -9.69 166.48 -9.25 L 166.48 -8.68 C 166.48 -7.85 166.12 -7.54 165.43 -7.47 C 165.09 -7.43 164.52 -7.41 163.74 -7.41 L 162.68 -7.41 C 159.73 -7.41 158.27 -5.97 158.14 -2.66 Z M 188.63 0.19 C 191.81 0.19 193.48 -0.49 194.14 -1.73 C 194.47 -2.34 194.64 -3.15 194.64 -4.14 L 194.64 -5.09 C 194.64 -7.68 193.44 -8.93 190.08 -8.93 L 188.94 -8.93 C 187.85 -8.93 186.98 -8.74 186.28 -8.32 L 186.28 -10.64 L 194.26 -10.64 L 194.26 -13.3 L 183.03 -13.3 L 183.03 -5.59 L 186.28 -5.59 C 186.73 -6.12 187.57 -6.27 188.65 -6.27 C 189.98 -6.27 190.74 -6.27 191.12 -5.89 C 191.29 -5.72 191.39 -5.42 191.39 -5 L 191.39 -4.05 C 191.39 -3.19 191.18 -2.81 190.4 -2.62 C 189.98 -2.51 189.41 -2.47 188.63 -2.47 C 187.21 -2.47 186.56 -2.64 186.35 -3.72 L 183.07 -3.72 C 183.35 -0.8 185.21 0.19 188.63 0.19 Z" stroke-linecap="round" />
</g>
</g>
</g>
<g transform="matrix(1.9211538461538462 0 0 1.9211538461538462 639.7681439329477 429.13321247672803)" id="tagline-83fdfb2a-8044-4ad8-b129-1c6be14b1c43-logo"  >
<g style=""  paint-order="stroke"   >
		<g transform="matrix(1 0 0 1 0 0)" id="tagline-83fdfb2a-8044-4ad8-b129-1c6be14b1c43-logo-path-0"  >
<linearGradient id="SVGID_172984" gradientUnits="userSpaceOnUse" gradientTransform="matrix(1 0 0 1 8.75 -124.25)"  x1="-8.75" y1="-29.599499999999978" x2="-8.75" y2="168.40050000000002">
<stop offset="0%" style="stop-color:rgb(66,230,149);stop-opacity: 1"/>
<stop offset="100%" style="stop-color:rgb(59,178,184);stop-opacity: 1"/>
</linearGradient>
<path style="stroke: rgb(255,255,255); stroke-width: 0; stroke-dasharray: none; stroke-linecap: butt; stroke-dashoffset: 0; stroke-linejoin: miter; stroke-miterlimit: 4; fill: url(#SVGID_172984); fill-rule: nonzero; opacity: 1;"  paint-order="stroke"  transform=" translate(-70.35, 61.25)" d="M 71.93 1.75 C 110.95 1.75 130.9 -12.08 131.78 -40.08 L 131.78 -64.58 L 75.6 -64.58 L 75.6 -40.08 L 101.85 -40.08 C 100.63 -28.53 87.33 -22.75 71.93 -22.75 C 49.35 -22.75 38.5 -34.3 38.5 -61.43 C 38.5 -87.5 48.65 -99.75 71.93 -99.75 C 88.9 -99.75 102.2 -94.5 102.2 -80.5 L 131.95 -80.5 C 129.85 -109.73 106.93 -124.25 71.93 -124.25 C 29.23 -124.25 8.75 -105 8.75 -61.43 C 8.75 -18.73 28 1.75 71.93 1.75 Z" stroke-linecap="round" />
</g>
</g>
</g>
</svg>